<?xml version="1.0" standalone="no"?>
<!DOCTYPE svg PUBLIC "-//W3C//DTD SVG 20010904//EN"
 "http://www.w3.org/TR/2001/REC-SVG-20010904/DTD/svg10.dtd">
<svg version="1.0" xmlns="http://www.w3.org/2000/svg"
 width="250.000000pt" height="250.000000pt" viewBox="0 0 250.000000 250.000000"
 preserveAspectRatio="xMidYMid meet">
<metadata>
Created by potrace 1.14, written by Peter Selinger 2001-2017
</metadata>
<g transform="translate(0.000000,250.000000) scale(0.100000,-0.100000)"
fill="#000000" stroke="none">
<path d="M0 1298 l0 -1202 470 464 469 465 -4 488 -3 487 309 0 c254 0 309 -2
309 -14 0 -32 -21 -283 -26 -304 -5 -23 -6 -23 -124 -20 l-119 3 -5 -55 c-4
-30 -4 -64 -2 -75 3 -11 5 -37 5 -57 1 -37 2 -38 39 -36 35 1 64 28 562 529
l524 529 -1202 0 -1202 0 0 -1202z m2380 1189 c0 -1 -235 -236 -522 -522
l-523 -520 520 523 c483 485 525 526 525 519z m-1450 -1450 c0 -1 -208 -209
-462 -462 l-463 -460 460 463 c427 429 465 466 465 459z"/>
</g>
</svg>
