<?xml version="1.0" standalone="no"?>
<!DOCTYPE svg PUBLIC "-//W3C//DTD SVG 20010904//EN"
 "http://www.w3.org/TR/2001/REC-SVG-20010904/DTD/svg10.dtd">
<svg version="1.0" xmlns="http://www.w3.org/2000/svg"
 width="256.000000pt" height="256.000000pt" viewBox="0 0 256.000000 256.000000"
 preserveAspectRatio="xMidYMid meet">
<metadata>
Created by potrace 1.14, written by Peter Selinger 2001-2017
</metadata>
<g transform="translate(0.000000,256.000000) scale(0.100000,-0.100000)"
fill="#000000" stroke="none">
<path d="M1194 2539 c-262 -90 -888 -460 -1011 -598 -21 -24 -41 -85 -49 -148
-2 -18 -6 -50 -8 -70 -27 -225 -22 -803 8 -958 3 -16 8 -42 11 -57 13 -66 40
-103 125 -167 19 -14 37 -28 40 -31 5 -5 94 -64 200 -132 212 -137 601 -336
714 -365 63 -17 66 -17 133 5 153 49 523 248 783 420 226 150 259 183 275 274
3 17 7 34 9 37 4 5 10 71 22 221 6 71 6 546 0 625 -11 153 -18 204 -36 276
-18 73 -73 123 -285 262 -345 225 -760 432 -854 425 -16 -1 -51 -10 -77 -19z
m205 -126 c247 -106 768 -415 873 -516 45 -44 50 -66 64 -277 15 -214 9 -654
-12 -835 -7 -62 -29 -109 -58 -129 -13 -8 -29 -21 -37 -28 -62 -62 -512 -330
-732 -436 -185 -90 -213 -95 -299 -61 -203 79 -702 367 -881 507 -59 46 -70
67 -82 157 -30 225 -24 862 9 1020 3 11 5 25 5 32 4 66 622 447 936 577 81 34
113 32 214 -11z"/>
<path d="M955 2116 c-64 -27 -225 -197 -225 -237 0 -27 35 -59 64 -59 23 0 24
-4 28 -62 2 -35 3 -276 3 -536 l-1 -472 23 -22 c21 -19 35 -22 124 -23 115 -1
154 12 162 53 3 15 3 98 0 185 l-5 157 152 0 151 0 -2 -176 c-2 -150 -5 -177
-18 -181 -60 -17 -79 -41 -67 -87 7 -28 150 -175 198 -203 l36 -21 41 20 c45
22 188 168 202 207 13 32 -16 75 -53 79 -17 2 -28 11 -32 25 -3 12 -4 242 -2
512 2 269 0 499 -4 511 -12 31 -52 41 -164 39 -94 -1 -100 -2 -122 -28 -23
-27 -24 -29 -19 -222 l5 -195 -151 0 -151 0 3 193 c4 251 3 244 45 252 33 6
51 26 48 55 -1 8 -2 21 -3 28 -1 17 -169 183 -206 204 -26 14 -35 14 -60 4z
m98 -208 c-19 -22 -20 -35 -27 -348 -4 -203 -3 -249 10 -267 14 -22 18 -22
221 -22 247 0 259 2 271 37 5 15 7 113 6 219 l-4 191 51 -2 51 -2 -2 -139 c-4
-237 -5 -746 -2 -826 3 -58 8 -82 22 -97 18 -19 18 -20 -19 -56 -20 -20 -42
-36 -48 -36 -6 0 -28 17 -50 38 -39 36 -40 37 -20 53 19 14 20 27 21 267 1
229 -1 253 -17 269 -16 16 -40 18 -235 19 -282 1 -260 19 -256 -220 l3 -177
-51 3 -51 3 3 105 c4 132 3 538 -1 778 -2 160 -5 187 -21 207 -18 23 -17 23
27 63 l46 41 44 -41 c42 -39 44 -43 28 -60z"/>
</g>
</svg>
